PathFileType	4	(X/Y/Z)	C:/Users/beibeiliu/ov580/test_trc/User1\sequence.12_training_dense_left.trc
DataRate	CameraRate	NumFrames	NumMarkers	Units	OrigDataRate	OrigDataStartFrame	OrigNumFrames
120	120	14	19	mm	120	191	304
Frame#	Time	ThumbCMC			ThumbMCP			ThumbIP			ThumbTip			IndexMCP			IndexPIP			IndexTip			MiddleMCP			MiddlePIP			MiddleTip			RingMCP			RingPIP			RingTip			PinkyMCP			PinkyPIP			PinkyTip			BackHand1			BackHand2			BackHand3	
		X0	Y0	Z0	X1	Y1	Z1	X2	Y2	Z2	X3	Y3	Z3	X4	Y4	Z4	X5	Y5	Z5	X6	Y6	Z6	X7	Y7	Z7	X8	Y8	Z8	X9	Y9	Z9	X10	Y10	Z10	X11	Y11	Z11	X12	Y12	Z12	X13	Y13	Z13	X14	Y14	Z14	X15	Y15	Z15	X16	Y16	Z16	X17	Y17	Z17	X18	Y18	Z18	
190	1.58333	-166.2	74.7829	13.5704	-152.346	60.4713	-13.9394	-143.635	54.3233	-38.9902	-139.92	44.9023	-60.8408	-195.125	114.381	-50.8934	-200.8	124.336	-79.4674	-203.102	120.687	-111.716	-226.539	123.771	-50.0659	-233.677	133.786	-83.333	-245.173	123.493	-112.921	-250.357	112.637	-41.1845	-256.23	120.754	-73.5981	-264.455	106.31	-100.837	-266.323	90.9504	-25.697	-278.14	93.807	-51.8762	-280.254	85.5149	-82.0361	-239.256	99.2452	4.57295	-233.879	94.4289	37.385	-198.406	100.432	17.922	
191	1.59167	-170.782	85.9752	9.05545	-152.497	72.8293	-12.0993	-143.677	67.0539	-36.7118	-140.931	57.2914	-61.9373	-206.287	116.858	-56.6074	-212.591	124.67	-86.0918	-219.445	116.078	-113.265	-238.832	119.218	-52.6604	-252.567	124.077	-82.1579	-259.826	109.196	-116.043	-256.027	107.772	-46.4728	-271.391	105.824	-75.8182	-274.257	87.4224	-99.2669	-270.336	81.5825	-28.3017	-285.26	78.3778	-49.3834	-282.431	64.6751	-78.5711	-243.218	98.108	5.03625	-235.886	95.3328	36.0424	-207.723	104.48	15.455	
192	1.6	-169.135	94.1343	7.99281	-152.31	83.2136	-17.3154	-145.795	77.3525	-42.3517	-136.756	65.1415	-66.4838	-215.883	118.608	-61.0383	-226.441	119.638	-86.2583	-227.524	110.777	-117.786	-247.94	112.909	-52.0419	-264.88	113.229	-82.652	-271.276	97.7546	-112.895	-266.818	96.5412	-45.6093	-280.417	92.2226	-75.824	-276.603	72.3565	-100.226	-276.15	69.2524	-23.7753	-289.609	61.9142	-45.7144	-288.125	47.444	-73.4708	-244.817	94.0594	6.9248	-233.211	94.3425	38.8547	-210.455	107.912	12.1279	
193	1.60833	-172.539	101.395	7.37906	-157.72	88.1767	-18.2568	-147.58	84.0403	-45.883	-136.526	73.9899	-66.2293	-224.515	117.079	-64.0283	-232.977	116.359	-90.56	-240.547	102.591	-117.716	-256.842	108.981	-57.3301	-272.298	105.032	-83.1957	-277.391	84.9595	-112.3	-272.817	88.8043	-46.2837	-283.66	81.1981	-75.6493	-281.514	61.5979	-94.7898	-273.432	63.8653	-24.2765	-288.918	49.7337	-44.2106	-284.741	32.8178	-72.785	-250.271	91.1554	3.25292	-241.235	93.9867	38.4559	-214.406	110.771	8.96205	
194	1.61667	-179.905	105.322	1.31971	-159.191	96.8579	-21.8496	-150.549	90.5791	-44.155	-144.075	80.4682	-68.9851	-232.771	112.643	-64.1184	-242.421	110.028	-94.5948	-245.232	98.1313	-116.381	-261.104	102.686	-57.0266	-278.015	94.3945	-86.8961	-280.619	72.9735	-110.564	-272.882	81.7041	-43.6678	-286.136	71.5711	-72.416	-278.466	48.8609	-97.3873	-274.283	55.318	-22.269	-284.691	39.3544	-45.2411	-280.304	24.6607	-69.8977	-251.717	88.4436	5.59954	-240.232	91.2781	36.7624	-220.863	110.723	10.2106	
195	1.625	-182.708	109.771	1.99778	-164.237	101.831	-22.3166	-153.825	99.0316	-49.8465	-143.461	88.0168	-69.1975	-237.223	109.683	-63.5289	-250.668	102.956	-95.1805	-251.485	87.8239	-117.786	-267.558	95.1571	-57.3723	-282.789	84.5748	-82.0522	-279.743	60.8807	-113.277	-275.398	71.8223	-43.0475	-287.449	59.4766	-71.3445	-278.483	39.3645	-92.548	-272.967	46.47	-23.6549	-281.455	32.4967	-40.8996	-274.22	16.0237	-68.0521	-253.754	86.1672	3.48349	-242.675	90.9057	32.4521	-227.605	111.003	3.85628	
196	1.63333	-189.906	111.782	-0.885186	-168.675	106.783	-23.3436	-156.37	104.028	-49.0841	-146.898	93.6998	-76.3086	-242.355	105.806	-65.926	-254.513	96.3685	-91.2022	-256.302	77.9655	-117.243	-268.919	87.5071	-55.3596	-284.767	72.1891	-85.4964	-278.168	51.9479	-114.838	-276.693	65.0058	-44.8142	-283.93	50.7525	-75.741	-272.555	30.2915	-93.2942	-269.426	40.139	-22.8909	-276.92	21.7505	-40.496	-269.806	5.02003	-63.975	-256.017	80.0535	3.80654	-246.683	88.1828	34.9189	-228.432	111.416	5.24239	
197	1.64167	-193.232	118.458	-3.83575	-173.012	111.825	-24.8069	-163.29	108.029	-53.2664	-150.163	99.865	-75.509	-248.022	100.138	-68.8572	-258.673	87.2519	-95.4551	-257.099	72.0796	-116.858	-272.074	77.7631	-55.2252	-283.004	67.1524	-84.888	-276.202	41.3023	-113.609	-275.203	57.1513	-44.0959	-281.925	40.606	-71.8247	-268.155	18.1377	-87.8449	-265.996	32.5953	-21.3965	-269.617	12.5007	-37.6766	-264.853	-2.35157	-60.2658	-255.69	76.6068	1.96816	-244.971	84.7821	36.108	-235.782	106.642	2.06495	
198	1.65	-198.198	121.545	-3.18515	-180.209	114.216	-28.333	-168.213	113.226	-51.9079	-157.224	104.151	-77.1858	-250.607	91.6494	-65.771	-260.682	81.6557	-94.7907	-259.14	60.0895	-115.891	-274.988	66.4803	-57.3136	-283.569	49.1341	-84.8341	-272.671	29.2646	-110.854	-273.097	45.3519	-39.2113	-278.754	24.0138	-67.307	-262.661	9.98459	-85.6594	-259.214	25.2389	-15.623	-261.986	2.9432	-32.2481	-253.757	-12.1816	-54.6493	-257.638	68.9048	1.88884	-246.529	82.0309	33.6184	-239.61	105.06	4.23786	
199	1.65833	-207.407	116.658	-7.0947	-187.384	115.632	-32.8323	-174.597	115.502	-59.3242	-162.453	107.245	-76.7292	-256.58	81.1521	-67.3351	-262.587	69.1868	-92.7752	-257.524	51.8778	-117.079	-273.608	59.1741	-57.4052	-280.455	40.2097	-80.9947	-269.718	17.1952	-104.996	-269.45	38.0962	-40.2877	-272.608	17.4262	-65.9147	-253.078	-0.93478	-83.7521	-254.294	13.3737	-16.4713	-253.025	-2.09687	-31.3425	-240.665	-19.0201	-51.2157	-254.62	65.5935	0.850973	-248.682	77.6464	34.1902	-244.77	102.87	-1.92692	
200	1.66667	-212.185	118.133	-9.84122	-191.824	118.142	-34.7747	-178.911	119.005	-59.6942	-167.95	107.853	-79.2115	-258.026	73.9639	-68.4194	-262.414	63.1679	-92.5628	-254.976	45.117	-117.59	-269.62	49.4637	-52.0749	-277.059	31.0798	-85.0335	-262.611	7.10155	-103.443	-263.748	33.7628	-39.7833	-266.925	9.93594	-63.7472	-245.375	-4.88002	-84.419	-246.974	13.58	-15.6489	-242.952	-7.49163	-30.9047	-228.918	-24.1525	-52.5124	-253.241	60.0406	5.77431	-249.069	73.5783	35.5677	-247.651	96.3203	3.746	
201	1.675	-215.597	119.136	-11.4629	-193.723	123.997	-33.1989	-184.496	121.023	-57.2775	-170.359	112.662	-79.0721	-255.137	69.2083	-66.5133	-260.303	53.214	-95.2244	-251.93	38.8474	-114.603	-268.009	45.5875	-55.6325	-271.176	22.0933	-83.7407	-257.063	0.991497	-103.485	-261.389	22.7676	-39.738	-257.102	0.50299	-65.1694	-234.179	-12.2397	-83.0164	-241.13	7.79246	-14.2165	-232.881	-14.1128	-30.7971	-218.403	-23.7625	-50.1051	-253.86	54.9942	2.15335	-248.807	74.6693	34.4903	-249.771	95.0497	2.28843	
202	1.68333	-217.964	120.36	-7.69243	-199.988	117.918	-35.91	-188.628	119.558	-59.4503	-172.386	115.933	-80.9443	-252.87	70.0445	-66.9523	-258.687	53.0004	-95.7966	-248.386	34.0028	-113.95	-263.352	42.6177	-55.6973	-266.504	18.9522	-85.3493	-249.789	-3.80169	-101.028	-255.197	23.1938	-42.9322	-250.947	1.87625	-65.2992	-226.618	-10.829	-80.8352	-235.279	5.05009	-16.5129	-227.835	-12.0149	-27.9668	-209.965	-24.074	-49.1664	-251.524	54.7468	0.347546	-251.526	72.8463	31.5277	-250.081	90.3142	-2.68501	
203	1.69167	-221.748	119.137	-11.4286	-201.129	122.14	-37.8983	-190.518	122.403	-61.957	-177.853	114.578	-80.0674	-253.147	64.5628	-66.5386	-257.754	51.9041	-92.9765	-246.271	31.1341	-114.092	-259.87	37.9968	-55.46	-261.412	16.3154	-83.9658	-243.139	-2.66282	-104.753	-249.312	16.7573	-39.9768	-239.327	-4.0453	-67.9303	-213.537	-15.341	-79.9442	-231.325	7.58996	-13.8681	-219.742	-13.321	-30.3462	-203.727	-20.2186	-49.0692	-250.786	49.4113	1.96436	-251.459	66.7511	35.1038	-250.727	90.8485	-3.78792	
